<?xml version="1.0" standalone="no"?>
<!DOCTYPE svg PUBLIC "-//W3C//DTD SVG 1.1//EN" "http://www.w3.org/Graphics/SVG/1.1/DTD/svg11.dtd" >
<svg xmlns="http://www.w3.org/2000/svg" xmlns:xlink="http://www.w3.org/1999/xlink" version="1.1" viewBox="-10 0 1020 1000">
  <g transform="matrix(1 0 0 -1 0 850)">
   <path fill="currentColor"
d="M417 350q0 -34 24.5 -58.5t59 -24.5t58.5 24.5t24 59t-24 58.5t-58.5 24t-59 -24t-24.5 -59v0zM333 350q0 45 22.5 83.5t61 61t83.5 22.5t83.5 -22.5t61 -61t22.5 -83.5t-22.5 -83.5t-61 -61t-83.5 -22.5t-83.5 22.5t-61 61t-22.5 83.5v0zM500 600q-68 0 -125.5 -33.5
t-91 -91t-33.5 -125.5t33.5 -125.5t91 -91t125.5 -33.5t125.5 33.5t91 91t33.5 125.5t-33.5 125.5t-91 91t-125.5 33.5v0zM500 -150q-136 0 -252 68q-113 67 -180 180q-68 116 -68 252t68 252q67 113 180 180q116 68 252 68t252 -68q113 -67 180 -180q68 -116 68 -252
t-68 -252q-67 -113 -180 -180q-116 -68 -252 -68v0z" />
  </g>

</svg>
