<?xml version="1.0" standalone="no"?>
<!DOCTYPE svg PUBLIC "-//W3C//DTD SVG 1.1//EN" "http://www.w3.org/Graphics/SVG/1.1/DTD/svg11.dtd" >
<svg xmlns="http://www.w3.org/2000/svg" xmlns:xlink="http://www.w3.org/1999/xlink" version="1.1" viewBox="-10 0 1010 1000">
  <g transform="matrix(1 0 0 -1 0 850)">
   <path fill="currentColor"
d="M116 460q-22 0 -38 -16t-16 -39v-278q0 -23 16 -39t38.5 -16t38.5 16t16 39v278q0 23 -16 39t-39 16zM653 746l57 57q8 8 8 19t-7.5 19t-18.5 8t-19 -8l-68 -69q-52 21 -104.5 21t-104.5 -21l-70 70q-7 8 -18 8t-19 -7.5t-8 -19t8 -19.5l58 -59q-56 -37 -88.5 -98
t-32.5 -131h548q0 70 -32.5 131t-88.5 99zM363 571q-11 0 -19 8t-8 19.5t8 20t19 8.5t19 -8.5t8 -20t-8 -19.5t-19 -8zM637 571q-11 0 -19 8t-8 19.5t8 20t19 8.5t19 -8.5t8 -20t-8 -19.5t-19 -8zM884 460q-23 0 -39 -16t-16 -39v-278q0 -23 16 -39t39 -16t39 16.5t16 38.5
v278q0 23 -16 39t-39 16zM226 72q0 -23 16 -39.5t39 -16.5h55v-111q0 -23 16 -39t38.5 -16t38.5 16t16 39v111h110v-111q0 -23 16 -39t38.5 -16t38.5 16t16 39v111h55q23 0 39 16.5t16 39.5v388h-548v-388z" />
  </g>

</svg>
