<?xml version="1.0" standalone="no"?>
<!DOCTYPE svg PUBLIC "-//W3C//DTD SVG 1.1//EN" "http://www.w3.org/Graphics/SVG/1.1/DTD/svg11.dtd" >
<svg xmlns="http://www.w3.org/2000/svg" xmlns:xlink="http://www.w3.org/1999/xlink" version="1.1" viewBox="-10 0 1020 1000">
  <g transform="matrix(1 0 0 -1 0 850)">
   <path fill="currentColor"
d="M818 89v45h182v-45h-182zM818 202h182v-45h-182v45zM818 270h182v-45h-182v45zM818 339h182v-46h-182v46zM818 407h182v-46h-182v46zM818 475h182v-45h-182v45zM818 543h182v-45h-182v45zM818 612h182v-46h-182v46zM614 134h182v-45h-182v45zM614 202h182v-45h-182v45z
M614 270h182v-45h-182v45zM614 339h182v-46h-182v46zM614 407h182v-46h-182v46zM409 134h182v-45h-182v45zM409 202h182v-45h-182v45zM409 270h182v-45h-182v45zM409 339h182v-46h-182v46zM409 407h182v-46h-182v46zM409 475h182v-45h-182v45zM409 543h182v-45h-182v45z
M205 134h181v-45h-181v45zM205 202h181v-45h-181v45zM205 270h181v-45h-181v45zM0 134h182v-45h-182v45zM0 202h182v-45h-182v45zM0 270h182v-45h-182v45zM0 339h182v-46h-182v46zM0 407h182v-46h-182v46z" />
  </g>

</svg>
