<?xml version="1.0" standalone="no"?>
<!DOCTYPE svg PUBLIC "-//W3C//DTD SVG 1.1//EN" "http://www.w3.org/Graphics/SVG/1.1/DTD/svg11.dtd" >
<svg xmlns="http://www.w3.org/2000/svg" xmlns:xlink="http://www.w3.org/1999/xlink" version="1.1" viewBox="-10 0 1010 1000">
  <g transform="matrix(1 0 0 -1 0 850)">
   <path fill="currentColor"
d="M958 100q0 -43 -24.5 -79.5t-66.5 -58t-92 -21.5t-92 21.5t-66.5 58t-24.5 79.5t24.5 79.5t66.5 58t91.5 21.5t91.5 -21v313l-458 -130v-412q0 -43 -24.5 -79.5t-66.5 -58t-92 -21.5t-92 21.5t-66.5 58t-24.5 79.5t24.5 79.5t66.5 58t91 21.5t93 -21v521l641 182v-750v0z
M866 733l-458 -130v-136l458 130v136z" />
  </g>

</svg>
