<?xml version="1.0" standalone="no"?>
<!DOCTYPE svg PUBLIC "-//W3C//DTD SVG 1.1//EN" "http://www.w3.org/Graphics/SVG/1.1/DTD/svg11.dtd" >
<svg xmlns="http://www.w3.org/2000/svg" xmlns:xlink="http://www.w3.org/1999/xlink" version="1.1" viewBox="-12 0 1022 1000">
  <g transform="matrix(1 0 0 -1 0 850)">
   <path fill="currentColor"
d="M13 673l167 -146q13 -11 30.5 -10t28.5 14t10 30.5t-14 28.5l-167 146q-13 11 -30 10t-28.5 -14t-10.5 -30.5t14 -28.5v0zM818 527l167 146q13 11 14 28.5t-10 30.5t-28.5 14t-30.5 -10l-167 -146q-13 -11 -14 -28.5t10.5 -30.5t28.5 -14t30 10v0zM457 808v-187
q0 -17 12.5 -29.5t29.5 -12.5t29.5 12.5t12.5 29.5v187q0 17 -12.5 29.5t-29.5 12.5t-29.5 -12.5t-12.5 -29.5v0zM624 335v-216q-14 2 -21 2q-43 0 -73.5 -27.5t-30.5 -66.5t30.5 -66.5t73.5 -27.5q40 0 69.5 24t34.5 60v458q0 17 -11.5 27t-28.5 7l-377 -68
q-17 -3 -29 -17.5t-12 -32.5v-355q-14 2 -21 2q-28 0 -52 -13t-38 -34.5t-14 -46.5q0 -39 30.5 -66.5t73.5 -27.5q40 0 69.5 24t34.5 59v349z" />
  </g>

</svg>
