<?xml version="1.0" standalone="no"?>
<!DOCTYPE svg PUBLIC "-//W3C//DTD SVG 1.1//EN" "http://www.w3.org/Graphics/SVG/1.1/DTD/svg11.dtd" >
<svg xmlns="http://www.w3.org/2000/svg" xmlns:xlink="http://www.w3.org/1999/xlink" version="1.1" viewBox="-10 0 1020 1000">
  <g transform="matrix(1 0 0 -1 0 850)">
   <path fill="currentColor"
d="M875 225q-34 0 -62.5 17t-45.5 45.5t-17 62.5t17 62.5t45.5 45.5t62.5 17t62.5 -17t45.5 -45.5t17 -62.5t-17 -62.5t-45.5 -45.5t-62.5 -17zM500 225q-34 0 -62.5 17t-45.5 45.5t-17 62.5t17 62.5t45.5 45.5t62.5 17t62.5 -17t45.5 -45.5t17 -62.5t-17 -62.5t-45.5 -45.5
t-62.5 -17zM125 225q-34 0 -62.5 17t-45.5 45.5t-17 62.5t17 62.5t45.5 45.5t62.5 17t62.5 -17t45.5 -45.5t17 -62.5t-17 -62.5t-45.5 -45.5t-62.5 -17z" />
  </g>

</svg>
