<?xml version="1.0" standalone="no"?>
<!DOCTYPE svg PUBLIC "-//W3C//DTD SVG 1.1//EN" "http://www.w3.org/Graphics/SVG/1.1/DTD/svg11.dtd" >
<svg xmlns="http://www.w3.org/2000/svg" xmlns:xlink="http://www.w3.org/1999/xlink" version="1.1" viewBox="-10 0 1020 1000">
  <g transform="matrix(1 0 0 -1 0 850)">
   <path fill="currentColor"
d="M500 475q-34 0 -62.5 -17t-45.5 -45.5t-17 -62.5t17 -62.5t45.5 -45.5t62.5 -17t62.5 17t45.5 45.5t17 62.5t-17 62.5t-45.5 45.5t-62.5 17v0zM401 -117l-26 172q0 32 17 58.5t45.5 42.5t62.5 16t62.5 -16t45.5 -42.5t17 -58.5l-20 -172q-2 -14 -12.5 -23.5t-23.5 -9.5
h-131q-13 0 -24 10t-13 23v0zM146 -4q-69 70 -107 159q-39 93 -39 195q0 136 68 252q67 113 180 180q116 68 252 68t252 -68q113 -67 180 -180q68 -116 68 -252q0 -102 -39 -195q-38 -89 -107 -159l-38 38q62 62 96 142q35 83 35 174q0 121 -61 225q-59 101 -160 160
q-104 61 -225.5 61t-225.5 -61q-101 -59 -160 -160q-61 -104 -61 -225q0 -91 35 -174q34 -80 95 -142zM273 123q-44 44 -69 102q-25 60 -25 125q0 87 44 162q42 73 115 115q75 44 162.5 44t161.5 -44q73 -42 115 -115q44 -74 44 -162q0 -65 -25 -125q-25 -58 -69 -102
l-38 38q37 37 58 85.5t21 103.5q0 73 -36 134.5t-97.5 97.5t-134.5 36t-134.5 -36t-97.5 -97.5t-36 -134.5q0 -55 21 -103.5t58 -85.5z" />
  </g>

</svg>
