<?xml version="1.0" standalone="no"?>
<!DOCTYPE svg PUBLIC "-//W3C//DTD SVG 1.1//EN" "http://www.w3.org/Graphics/SVG/1.1/DTD/svg11.dtd" >
<svg xmlns="http://www.w3.org/2000/svg" xmlns:xlink="http://www.w3.org/1999/xlink" version="1.1" viewBox="-11 0 1021 1000">
  <g transform="matrix(1 0 0 -1 0 850)">
   <path fill="currentColor"
d="M988 -82v0l-208 208q58 69 84 156q27 90 15 184.5t-62.5 175t-129 134t-171.5 68.5q-111 18 -214 -17q-99 -32 -173 -106t-106 -173q-35 -103 -17 -214q15 -93 68.5 -171.5t134 -129t175 -62.5t185.5 15q86 26 155 84l208 -208v0q12 -12 28.5 -12t28 11.5t11.5 28
t-12 28.5zM380 52q-74 12 -137 53.5t-104.5 104.5t-53.5 137q-15 91 13 176q27 81 87.5 141.5t141.5 87.5q85 29 176 14q74 -12 137 -54t105 -105t54 -137q15 -91 -14 -176q-27 -81 -87.5 -141.5t-141.5 -87.5q-85 -28 -176 -13z" />
  </g>

</svg>
